<?xml version="1.0" encoding="utf-8"?>
<!-- Generator: Adobe Illustrator 24.0.2, SVG Export Plug-In . SVG Version: 6.00 Build 0)  -->
<svg version="1.1"
	 id="Capa_1" text-rendering="geometricPrecision" shape-rendering="geometricPrecision" image-rendering="optimizeQuality"
	 xmlns="http://www.w3.org/2000/svg" xmlns:xlink="http://www.w3.org/1999/xlink" x="0px" y="0px" viewBox="0 0 512 512"
	 style="enable-background:new 0 0 512 512;" xml:space="preserve">
<style type="text/css">
	.st0{fill:#FFFF43;}
</style>
<path class="st0" d="M512,256c0,70.7-28.7,134.7-75,181s-110.3,75-181,75c-70.7,0-134.7-28.7-181-75S0,326.7,0,256S28.7,121.3,75,75
	S185.3,0,256,0c70.7,0,134.7,28.7,181,75S512,185.3,512,256z M280.3,147l-109,109l109,109l40.5-40.5L252.3,256l68.5-68.5L280.3,147
	L280.3,147z M411,411c39.7-39.7,64.2-94.5,64.2-155c0-60.5-24.5-115.3-64.2-155s-94.5-64.2-155-64.2c-60.5,0-115.3,24.5-155,64.2
	s-64.2,94.5-64.2,155S61.3,371.3,101,411s94.5,64.2,155,64.2C316.5,475.2,371.3,450.6,411,411z"/>
</svg>
