<?xml version="1.0" encoding="utf-8"?>
<!-- Generator: Adobe Illustrator 24.0.2, SVG Export Plug-In . SVG Version: 6.00 Build 0)  -->
<svg version="1.1"
	 id="Capa_1" text-rendering="geometricPrecision" shape-rendering="geometricPrecision" image-rendering="optimizeQuality"
	 xmlns="http://www.w3.org/2000/svg" xmlns:xlink="http://www.w3.org/1999/xlink" x="0px" y="0px" viewBox="0 0 512 512"
	 style="enable-background:new 0 0 512 512;" xml:space="preserve">
<style type="text/css">
	.st0{fill-rule:evenodd;clip-rule:evenodd;fill:#FFFF43;}
</style>
<path class="st0" d="M0,256c0,70.7,28.7,134.7,75,181s110.3,75,181,75c70.7,0,134.7-28.7,181-75s75-110.3,75-181s-28.7-134.7-75-181
	C390.7,28.7,326.7,0,256,0C185.3,0,121.3,28.7,75,75C28.7,121.3,0,185.3,0,256z M227.9,147l109,109l-109,109l-40.5-40.5l68.5-68.5
	l-68.5-68.5L227.9,147L227.9,147z"/>
</svg>
