<?xml version="1.0" encoding="utf-8"?>
<!-- Generator: Adobe Illustrator 24.0.2, SVG Export Plug-In . SVG Version: 6.00 Build 0)  -->
<svg version="1.1"
	 id="Capa_1" text-rendering="geometricPrecision" shape-rendering="geometricPrecision" image-rendering="optimizeQuality"
	 xmlns="http://www.w3.org/2000/svg" xmlns:xlink="http://www.w3.org/1999/xlink" x="0px" y="0px" viewBox="0 0 512 512"
	 style="enable-background:new 0 0 512 512;" xml:space="preserve">
<style type="text/css">
	.st0{fill:#FFFF43;}
</style>
<path class="st0" d="M0,256c0,70.7,28.7,134.7,75,181s110.3,75,181,75c70.7,0,134.7-28.7,181-75s75-110.3,75-181s-28.7-134.7-75-181
	S326.7,0,256,0C185.3,0,121.3,28.7,75,75S0,185.3,0,256z M231.7,147l109,109l-109,109l-40.5-40.5l68.5-68.5l-68.5-68.5L231.7,147
	L231.7,147z M101,411c-39.7-39.7-64.2-94.5-64.2-155c0-60.5,24.5-115.3,64.2-155s94.5-64.2,155-64.2c60.5,0,115.3,24.5,155,64.2
	s64.2,94.5,64.2,155S450.6,371.3,411,411s-94.5,64.2-155,64.2C195.5,475.2,140.7,450.6,101,411L101,411z"/>
</svg>
